{"title":"Bleeder.1999.DVDRip.x264.mkv","uid":14407498,"size":1744913698,"categoryP":"video","categoryS":"movies","magnet":"?xt=urn:btih:002cd6d414772c715c69fb2d917d502d2ea5e606&amp;dn=Bleeder.1999.DVDRip.x264.mkv&amp;tr=udp%3A%2F%2Ftracker.leechers-paradise.org%3A6969&amp;tr=udp%3A%2F%2Fzer0day.ch%3A1337&amp;tr=udp%3A%2F%2Fopen.demonii.com%3A1337&amp;tr=udp%3A%2F%2Ftracker.coppersurfer.tk%3A6969&amp;tr=udp%3A%2F%2Fexodus.desync.com%3A6969","seeders":5,"leechers":0,"uploader":"kanaille","files":1,"time":1461426572,"description":"General\r\nUnique ID                                : 96338701997935898137002120572574260606 (0x487A28BAA79035132BE417A197C65D7E)\r\nComplete name                            : /mnt/sdb2/FilmsNicolas Winding RefnBleeder.1999.DVDRip.x264.Nicolas.Winding.Refn/Bleeder.1999.DVDRip.x264.mkv\r\nFormat                                   : Matroska\r\nFormat version                           : Version 4 / Version 2\r\nFile size                                : 1.63 GiB\r\nDuration                                 : 1h 33mn\r\nOverall bit rate                         : 2 485 Kbps\r\nEncoded date                             : UTC 2016-04-03 13:18:04\r\nWriting application                      : mkvmerge v9.0.1 ('Obstacles') 64bit\r\nWriting library                          : libebml v1.3.3 + libmatroska v1.4.4\r\n\r\nVideo\r\nID                                       : 1\r\nFormat                                   : AVC\r\nFormat/Info                              : Advanced Video Codec\r\nFormat profile                           :   \r\nFormat settings, CABAC                   : Yes\r\nFormat settings, ReFrames                : 12 frames\r\nCodec ID                                 : V_MPEG4/ISO/AVC\r\nDuration                                 : 1h 33mn\r\nBit rate                                 : 2 035 Kbps\r\nWidth                                    : 720 pixels\r\nHeight                                   : 304 pixels\r\nDisplay aspect ratio                     : 2.35:1\r\nFrame rate mode                          : Constant\r\nFrame rate                               : 25.000 fps\r\nColor space                              : YUV\r\nChroma subsampling                       : 4:2:0\r\nBit depth                                : 8 bits\r\nScan type                                : Progressive\r\nBits/(Pixel*Frame)                       : 0.372\r\nStream size                              : 1.33 GiB (82%)\r\nWriting library                          : x264 core 124 r2197 69a0443\r\nEncoding settings                        : cabac=1 / ref=12 / deblock=1:-3:-3 / analyse=0x3:0x111 / me=umh / subme=11 / psy=1 / psy_rd=1.00:0.00 / mixed_ref=1 / me_range=32 / chroma_me=1 / trellis=2 / 8x8dct=1 / cqm=0 / deadzone=21,11 / fast_pskip=0 / chroma_qp_offset=-2 / threads=6 / sliced_threads=0 / nr=0 / decimate=1 / interlaced=0 / bluray_compat=0 / constrained_intra=0 / bframes=9 / b_pyramid=2 / b_adapt=2 / b_bias=0 / direct=3 / weightb=1 / open_gop=0 / weightp=2 / keyint=250 / keyint_min=25 / scenecut=40 / intra_refresh=0 / rc_lookahead=50 / rc=2pass / mbtree=1 / bitrate=2035 / ratetol=1.0 / qcomp=0.60 / qpmin=0 / qpmax=69 / qpstep=4 / cplxblur=20.0 / qblur=0.5 / ip_ratio=1.40 / aq=1:1.10\r\nDefault                                  : No\r\nForced                                   : Yes\r\n\r\nAudio\r\nID                                       : 2\r\nFormat                                   : AC-3\r\nFormat/Info                              : Audio Coding 3\r\nMode extension                           : CM (complete main)\r\nFormat settings, Endianness              : Big\r\nCodec ID                                 : A_AC3\r\nDuration                                 : 1h 33mn\r\nBit rate mode                            : Constant\r\nBit rate                                 : 448 Kbps\r\nChannel(s)                               : 6 channels\r\nChannel positions                        : Front: L C R, Side: L R, LFE\r\nSampling rate                            : 48.0 KHz\r\nFrame rate                               : 31.250 fps (1536 spf)\r\nCompression mode                         : Lossy\r\nStream size                              : 300 MiB (18%)\r\nTitle                                    : Dansk\r\nLanguage                                 : Danish\r\nDefault                                  : No\r\nForced                                   : Yes\r\n\r\nText #1\r\nID                                       : 3\r\nFormat                                   : UTF-8\r\nCodec ID                                 : S_TEXT/UTF8\r\nCodec ID/Info                            : UTF-8 Plain Text\r\nDuration                                 : 1h 28mn\r\nBit rate                                 : 35 bps\r\nCount of elements                        : 772\r\nStream size                              : 23.2 KiB (0%)\r\nLanguage                                 : English\r\nDefault                                  : No\r\nForced                                   : No\r\n\r\nText #2\r\nID                                       : 4\r\nFormat                                   : UTF-8\r\nCodec ID                                 : S_TEXT/UTF8\r\nCodec ID/Info                            : UTF-8 Plain Text\r\nDuration                                 : 1h 26mn\r\nBit rate                                 : 41 bps\r\nCount of elements                        : 770\r\nStream size                              : 26.2 KiB (0%)\r\nLanguage                                 : French\r\nDefault                                  : No\r\nForced                                   : No\r\n\r\nText #3\r\nID                                       : 5\r\nFormat                                   : UTF-8\r\nCodec ID                                 : S_TEXT/UTF8\r\nCodec ID/Info                            : UTF-8 Plain Text\r\nDuration                                 : 1h 28mn\r\nBit rate                                 : 62 bps\r\nCount of elements                        : 771\r\nStream size                              : 40.4 KiB (0%)\r\nLanguage                                 : Russian\r\nDefault                                  : No\r\nForced                                   : No","torrent":{"xt":"urn:btih:002cd6d414772c715c69fb2d917d502d2ea5e606","amp;dn":"Bleeder.1999.DVDRip.x264.mkv","amp;tr":["udp%3A%2F%2Ftracker.leechers-paradise.org%3A6969","udp%3A%2F%2Fzer0day.ch%3A1337","udp%3A%2F%2Fopen.demonii.com%3A1337","udp%3A%2F%2Ftracker.coppersurfer.tk%3A6969","udp%3A%2F%2Fexodus.desync.com%3A6969"],"infoHash":"002cd6d414772c715c69fb2d917d502d2ea5e606","infoHashBuffer":{"type":"Buffer","data":[0,44,214,212,20,119,44,113,92,105,251,45,145,125,80,45,46,165,230,6]},"announce":[],"urlList":[]}}